<svg width="1593" height="266" viewBox="0 0 1593 266" fill="none" xmlns="http://www.w3.org/2000/svg">
<path d="M0.902344 210V0.527344H90.2578C130.102 0.527344 150.023 16.7871 150.023 49.3066C150.023 73.1348 137.035 90.1758 111.059 100.43C138.793 105.605 152.66 121.475 152.66 148.037C152.66 189.346 130.834 210 87.1816 210H0.902344ZM85.5703 188.027C110.57 188.027 123.07 175.332 123.07 149.941C123.07 125.234 106.322 112.881 72.8262 112.881H61.1074V95.1562C101.146 89.7852 121.166 75.332 121.166 51.7969C121.166 32.2656 110.033 22.5 87.7676 22.5H28.002V188.027H85.5703ZM308.52 205.605C295.824 208.535 282.152 210 267.504 210C212.816 210 185.473 183.389 185.473 130.166C185.473 80.8496 212.816 56.1914 267.504 56.1914C282.152 56.1914 295.824 57.6562 308.52 60.5859V82.5586C295.824 79.6289 281.664 78.1641 266.039 78.1641C230.395 78.1641 212.572 95.498 212.572 130.166C212.572 168.74 230.395 188.027 266.039 188.027C281.664 188.027 295.824 186.562 308.52 183.633V205.605ZM406.518 56.1914C450.268 56.1914 472.143 77.8223 472.143 121.084C472.143 127.236 471.703 133.828 470.824 140.859H362.865C362.865 172.305 381.225 188.027 417.943 188.027C435.424 188.027 450.951 186.074 464.525 182.168V204.141C450.951 208.047 434.447 210 415.014 210C362.182 210 335.766 183.779 335.766 131.338C335.766 81.2402 359.35 56.1914 406.518 56.1914ZM362.865 118.301H446.068C445.482 91.3477 432.299 77.8711 406.518 77.8711C379.174 77.8711 364.623 91.3477 362.865 118.301ZM695.385 56.1914V78.1641H641.186V210H614.086V78.1641H559.887V56.1914H695.385ZM710.18 133.096C710.18 80.8496 735.57 54.7266 786.352 54.7266C837.133 54.7266 862.523 80.8496 862.523 133.096C862.523 185.342 837.133 211.465 786.352 211.465C735.766 211.465 710.375 185.342 710.18 133.096ZM737.279 132.51C737.279 170.498 753.637 189.492 786.352 189.492C819.066 189.492 835.424 170.498 835.424 132.51C835.424 95.3027 819.066 76.6992 786.352 76.6992C753.637 76.6992 737.279 95.3027 737.279 132.51ZM980.883 188.027C996.117 188.027 1003.73 180.215 1003.73 164.59C1003.73 149.941 991.869 142.617 968.139 142.617H956.42V124.893C986.693 121.475 1001.83 111.27 1001.83 94.2773C1001.83 83.5352 995.58 78.1641 983.08 78.1641H926.244V188.027H980.883ZM899.145 210V56.1914H985.57C1015.65 56.1914 1030.69 69.0332 1030.69 94.7168C1030.69 110.635 1021.12 122.451 1001.98 130.166C1022.88 135.342 1033.32 146.67 1033.32 164.15C1033.32 194.717 1016.38 210 982.494 210H899.145ZM1062.62 163.564C1062.62 132.021 1083.42 116.25 1125.02 116.25C1138.4 116.25 1151.78 117.227 1165.16 119.18V104.678C1165.16 87.002 1151.34 78.1641 1123.71 78.1641C1107.88 78.1641 1091.67 80.6055 1075.07 85.4883V63.5156C1091.67 58.6328 1107.88 56.1914 1123.71 56.1914C1169.41 56.1914 1192.26 72.1094 1192.26 103.945V210H1177.03L1167.65 194.766C1152.32 204.922 1135.62 210 1117.55 210C1080.93 210 1062.62 194.521 1062.62 163.564ZM1125.02 138.223C1101.49 138.223 1089.72 146.523 1089.72 163.125C1089.72 179.727 1099 188.027 1117.55 188.027C1136.3 188.027 1152.17 183.047 1165.16 173.086V141.152C1151.78 139.199 1138.4 138.223 1125.02 138.223ZM1263.45 178.652C1274.1 183.926 1285.96 186.562 1299.05 186.562C1333.91 186.562 1351.34 167.373 1351.34 128.994C1351.34 95.498 1334.01 78.75 1299.34 78.75C1285.67 78.75 1273.71 79.9219 1263.45 82.2656V178.652ZM1236.35 62.4902C1256.76 58.291 1277.86 56.1914 1299.63 56.1914C1351.88 56.1914 1378 80.5566 1378 129.287C1378 183.096 1351.73 210 1299.19 210C1286.89 210 1274.97 207.559 1263.45 202.676V265.664H1236.35V62.4902ZM1564.92 210V56.1914H1592.02V210H1564.92ZM1441.87 56.1914V187.588H1488.45C1505.83 187.588 1514.53 179.336 1514.53 162.832C1514.53 149.453 1505.64 142.764 1487.87 142.764H1461.79V120.791H1489.18C1524.34 120.791 1541.92 135.244 1541.92 164.15C1541.92 194.717 1524.93 210 1490.94 210H1414.77V56.1914H1441.87Z" fill="#98887A" fill-opacity="0.06"/>
</svg>
