<svg width="56" height="56" viewBox="0 0 56 56" fill="none" xmlns="http://www.w3.org/2000/svg">
<circle cx="28" cy="28" r="28" fill="#E8E8E8"/>
<path d="M18.9725 21.0774H21.8275C21.4981 22.6307 21.3714 24.2433 21.3714 25.7995C21.3714 26.262 21.7466 26.6373 22.2092 26.6373C22.6718 26.6373 23.047 26.262 23.047 25.7995C23.047 24.2492 23.1778 22.6215 23.5391 21.0774H33.2954C33.6567 22.6215 33.7874 24.2492 33.7874 25.7995C33.7874 26.262 34.1627 26.6373 34.6253 26.6373C35.0878 26.6373 35.4631 26.262 35.4631 25.7995C35.4631 24.2433 35.3364 22.6307 35.007 21.0774H37.9865C38.2119 21.0774 38.3958 21.2555 38.4051 21.4786L39.9541 40.3581L39.9545 40.3581C39.9734 40.5886 39.8018 40.791 39.5712 40.8099C39.5595 40.8108 39.5479 40.8113 39.5363 40.8113H17.4189C17.1876 40.8113 17 40.6237 17 40.3923C17 40.3747 17.0011 40.3573 17.0032 40.3403L18.5521 21.4636L18.9694 21.4963L18.5518 21.4621C18.5699 21.242 18.7551 21.0756 18.9725 21.0774L18.9725 21.0774Z" fill="#98887A"/>
<path d="M21.7904 25.7994C21.7904 26.0308 21.9779 26.2184 22.2093 26.2184C22.4407 26.2184 22.6282 26.0308 22.6282 25.7994C22.6282 20.484 24.1627 17.1052 26.1269 15.6466C26.8529 15.1075 27.6368 14.8379 28.4174 14.8379C29.1979 14.8379 29.9818 15.1075 30.7078 15.6467C32.6719 17.1052 34.2065 20.4839 34.2065 25.7994C34.2065 26.0308 34.394 26.2183 34.6254 26.2183C34.8567 26.2183 35.0443 26.0308 35.0443 25.7994C35.0443 20.1896 33.3605 16.5761 31.2053 14.9757C30.3294 14.3252 29.3751 14 28.4174 14C27.4597 14 26.5053 14.3252 25.6294 14.9757C23.4742 16.5762 21.7904 20.1897 21.7904 25.7994V25.7994Z" fill="#98887A"/>
</svg>
