<svg width="56" height="56" viewBox="0 0 56 56" fill="none" xmlns="http://www.w3.org/2000/svg">
<circle cx="28" cy="28" r="28" fill="#E8E8E8"/>
<path d="M46.0798 34.9286C45.9738 34.9757 45.8606 35.0294 45.7474 35.0733L41.0242 21.9107L42.0417 21.8244L42.0388 21.0144L40.6497 20.907L40.5684 20.8355C40.5278 20.8013 40.4784 20.772 40.4276 20.7558L40.2433 20.7135C40.178 20.7135 40.1156 20.7281 40.0793 20.746L39.9748 20.7525L39.9051 20.8485L29.8013 20.0287L29.8042 19.8221C29.8056 18.2231 29.7098 13 28.5007 13C27.2916 13 27.1987 18.2231 27.1987 19.8221L27.2016 20.0465L17.1094 20.8647L17.0818 20.8387C17.0412 20.8013 16.9918 20.7769 16.941 20.759L16.7567 20.7167C16.703 20.7167 16.6507 20.7281 16.5999 20.7492L16.4969 20.7558L16.3895 20.8891L15.1615 21.0225L15.1601 21.831L15.986 21.9009L11.2555 35.0815C11.1423 35.0343 11.0306 34.9855 10.9231 34.9351L10 34.478L10.4543 35.4865C11.3978 37.5881 13.9321 38.9951 16.7567 38.9951C19.5799 38.9951 22.1127 37.5881 23.062 35.4881L23.5178 34.478L22.5917 34.9286C22.4857 34.9822 22.374 35.0294 22.2593 35.0782L17.5782 22.0294L27.3061 22.8199C27.5964 26.6474 28.2496 26.6474 28.5007 26.6474C28.7504 26.6474 29.4065 26.6474 29.6939 22.8378L39.4203 22.0473L34.7407 35.0798C34.6275 35.0343 34.5172 34.9822 34.4083 34.9318L33.4837 34.4812L33.938 35.4914C34.8815 37.5913 37.4158 39 40.2433 39C43.0665 39 45.5964 37.5913 46.5471 35.4897L47 34.4812L46.0798 34.9286ZM21.207 35.493C18.3867 36.4787 15.1281 36.4787 12.3079 35.493L16.7552 23.103L21.207 35.493ZM35.7959 35.493L40.2433 23.103L44.6878 35.493C41.8733 36.482 38.6162 36.482 35.7959 35.493Z" fill="#98887A" stroke="#98887A" stroke-width="0.4"/>
</svg>
