<svg width="164" height="43" viewBox="0 0 164 43" fill="none" xmlns="http://www.w3.org/2000/svg">
<path d="M2.49023 35.8889V12.1487H7.05566L15.1074 30.1613L22.9932 12.1487H27.3926V35.8889H23.3252V19.3537L16.8838 35.8889H13.1318L6.55762 19.3537V35.8889H2.49023Z" fill="#98887A"/>
<path d="M44.4902 34.8557V11.1487H55.2812C60.1289 11.1487 62.5527 13.2681 62.5527 17.507C62.5527 20.3736 60.6657 22.7476 56.8916 24.6291L64.4121 34.8889H58.8672L51.6455 24.5461V22.5373C55.8512 21.8179 57.9541 20.1854 57.9541 17.6399C57.9541 15.8912 56.9691 15.0168 54.999 15.0168H48.9727V34.8557H44.4902Z" fill="#98887A"/>
<path d="M79.54 19.508C83.915 19.508 86.1025 21.6711 86.1025 25.9973C86.1025 26.6125 86.0586 27.2717 85.9707 27.9748H75.1748C75.1748 31.1194 77.0107 32.6916 80.6826 32.6916C82.4307 32.6916 83.9834 32.4963 85.3408 32.1057V34.3029C83.9834 34.6936 82.333 34.8889 80.3896 34.8889C75.1064 34.8889 72.4648 32.2668 72.4648 27.0227C72.4648 22.0129 74.8232 19.508 79.54 19.508ZM75.1748 25.719H83.4951C83.4365 23.0237 82.1182 21.676 79.54 21.676C76.8057 21.676 75.3506 23.0237 75.1748 25.719ZM92.6064 13.9416V34.8889H89.8965V13.9416H92.6064ZM103.505 19.508C107.88 19.508 110.067 21.6711 110.067 25.9973C110.067 26.6125 110.023 27.2717 109.936 27.9748H99.1396C99.1396 31.1194 100.976 32.6916 104.647 32.6916C106.396 32.6916 107.948 32.4963 109.306 32.1057V34.3029C107.948 34.6936 106.298 34.8889 104.354 34.8889C99.0713 34.8889 96.4297 32.2668 96.4297 27.0227C96.4297 22.0129 98.7881 19.508 103.505 19.508ZM99.1396 25.719H107.46C107.401 23.0237 106.083 21.676 103.505 21.676C100.771 21.676 99.3154 23.0237 99.1396 25.719ZM125.287 34.4494C124.018 34.7424 122.65 34.8889 121.186 34.8889C115.717 34.8889 112.982 32.2278 112.982 26.9055C112.982 21.9738 115.717 19.508 121.186 19.508C122.65 19.508 124.018 19.6545 125.287 19.9475V22.1447C124.018 21.8518 122.602 21.7053 121.039 21.7053C117.475 21.7053 115.692 23.4387 115.692 26.9055C115.692 30.7629 117.475 32.6916 121.039 32.6916C122.602 32.6916 124.018 32.5451 125.287 32.2522V34.4494ZM128.744 17.0178H130.443L131.029 19.508H135.189V21.7053H131.454V30.5383C131.454 31.9738 132.074 32.6916 133.314 32.6916H135.189V34.8889H132.611C130.033 34.8889 128.744 33.507 128.744 30.7434V17.0178ZM138.646 34.8889V19.508H140.478L140.961 21.4709C142.309 20.1623 143.93 19.508 145.824 19.508V21.7639C143.988 21.7639 142.499 22.4133 141.356 23.7121V34.8889H138.646ZM150.526 27.1399C150.526 30.841 152.064 32.6916 155.141 32.6916C158.217 32.6916 159.755 30.841 159.755 27.1399C159.755 23.5168 158.217 21.7053 155.141 21.7053C152.064 21.7053 150.526 23.5168 150.526 27.1399ZM147.816 27.1985C147.816 22.0715 150.258 19.508 155.141 19.508C160.023 19.508 162.465 22.0715 162.465 27.1985C162.465 32.3156 160.023 34.8742 155.141 34.8742C150.277 34.8742 147.836 32.3156 147.816 27.1985Z" fill="#98887A"/>
<line x1="74" y1="37.3889" x2="162" y2="37.3889" stroke="#98887A"/>
<path d="M29 5.00709V2.99615L29.1183 2.81872C30.2273 1.08872 34.7519 1 35.6538 1C38.1971 1 41.2431 1.47316 42.1746 2.78915L42.3077 2.98137V5.00709L42.0859 5.22889C41.4797 5.83513 41.5832 6.70752 41.8789 8.42274C42.1468 9.87665 42.2902 11.3508 42.3077 12.8291C42.0532 16.253 41.5191 19.6504 40.7108 22.9873C40.0483 25.7239 39.5935 28.5068 39.3504 31.312C39.4496 31.6103 39.6412 31.8693 39.8975 32.0513C40.8291 32.9532 42.3077 34.4615 42.3077 38.7051V39.4444H41.5684C41.1858 39.439 40.809 39.3501 40.4642 39.1842C40.1195 39.0182 39.8151 38.779 39.5722 38.4833C39.4688 38.3247 39.3274 38.1943 39.1608 38.1041C38.9943 38.0139 38.8079 37.9666 38.6185 37.9666C38.4291 37.9666 38.2427 38.0139 38.0762 38.1041C37.9096 38.1943 37.7682 38.3247 37.6648 38.4833C37.4237 38.7827 37.1185 39.0241 36.7718 39.1901C36.4251 39.356 36.0456 39.4421 35.6612 39.4421C35.2769 39.4421 34.8974 39.356 34.5507 39.1901C34.204 39.0241 33.8988 38.7827 33.6577 38.4833C33.5542 38.3247 33.4129 38.1943 33.2463 38.1041C33.0798 38.0139 32.8934 37.9666 32.704 37.9666C32.5146 37.9666 32.3282 38.0139 32.1616 38.1041C31.9951 38.1943 31.8537 38.3247 31.7503 38.4833C31.5058 38.7809 31.199 39.0212 30.8515 39.1873C30.5041 39.3533 30.1244 39.4411 29.7393 39.4444H29V38.7051C29 34.4615 30.4786 32.9532 31.4102 32.0513C31.6665 31.8693 31.8581 31.6103 31.9573 31.312C31.7144 28.5067 31.2597 25.7239 30.5969 22.9873C29.7892 19.6503 29.2552 16.2529 29 12.8291C29.0158 11.3409 29.1592 9.8568 29.4288 8.39316C29.7245 6.6188 29.828 5.80556 29.2218 5.19932L29 5.00709ZM32.46 33.1011C31.8332 33.6729 31.3332 34.3696 30.9919 35.1463C30.6507 35.923 30.4758 36.7626 30.4786 37.6109L30.6561 37.4335C30.8972 37.1342 31.2023 36.8927 31.5491 36.7268C31.8958 36.5609 32.2753 36.4747 32.6596 36.4747C33.044 36.4747 33.4235 36.5609 33.7702 36.7268C34.1169 36.8927 34.422 37.1342 34.6632 37.4335C34.7666 37.5922 34.908 37.7225 35.0745 37.8127C35.2411 37.9029 35.4275 37.9502 35.6169 37.9502C35.8063 37.9502 35.9927 37.9029 36.1592 37.8127C36.3258 37.7225 36.4672 37.5922 36.5706 37.4335C36.8117 37.1342 37.1169 36.8927 37.4636 36.7268C37.8103 36.5609 38.1898 36.4747 38.5741 36.4747C38.9585 36.4747 39.338 36.5609 39.6847 36.7268C40.0314 36.8927 40.3366 37.1342 40.5777 37.4335L40.8291 37.6109C40.8396 36.7634 40.6727 35.923 40.3391 35.1438C40.0055 34.3645 39.5126 33.6637 38.8921 33.0863C38.6064 32.8793 38.3678 32.6142 38.1919 32.3084C38.0161 32.0026 37.907 31.663 37.8718 31.312C38.1101 28.4067 38.5748 25.5245 39.2617 22.6915C39.5279 21.3608 39.8088 20.03 40.0454 18.7436H31.1736C31.4102 20.03 31.6911 21.3608 31.9573 22.6915C32.6741 25.5221 33.1685 28.4043 33.4359 31.312C33.4063 31.6632 33.3027 32.0042 33.132 32.3125C32.9612 32.6209 32.7272 32.8896 32.4452 33.1011H32.46ZM30.4786 4.41564C31.3954 5.5394 31.1736 6.92932 30.8927 8.65932C30.6363 10.0349 30.4978 11.4299 30.4786 12.8291C30.5306 14.3185 30.6987 15.8016 30.9814 17.265H40.3263C40.6093 15.8017 40.7774 14.3185 40.8291 12.8291C40.8107 11.425 40.6722 10.025 40.415 8.64453C40.1341 6.91453 39.9123 5.5394 40.8291 4.41564V3.49889C39.2228 2.69684 37.4294 2.3443 35.6391 2.47863C33.8598 2.34365 32.0771 2.691 30.4786 3.4841V4.41564Z" fill="#98887A" stroke="#98887A" stroke-width="0.3"/>
<path d="M37.8718 7.65385V10.6111C37.8718 11.1993 37.6381 11.7635 37.2222 12.1794C36.8062 12.5954 36.2421 12.8291 35.6538 12.8291C35.0656 12.8291 34.5015 12.5954 34.0855 12.1794C33.6696 11.7635 33.4359 11.1993 33.4359 10.6111V7.65385C33.4359 7.06561 33.6696 6.50147 34.0855 6.08552C34.5015 5.66957 35.0656 5.4359 35.6538 5.4359C36.2421 5.4359 36.8062 5.66957 37.2222 6.08552C37.6381 6.50147 37.8718 7.06561 37.8718 7.65385ZM34.9145 7.65385V10.6111C34.9145 10.8072 34.9924 10.9952 35.1311 11.1339C35.2697 11.2725 35.4578 11.3504 35.6538 11.3504C35.8499 11.3504 36.038 11.2725 36.1766 11.1339C36.3153 10.9952 36.3932 10.8072 36.3932 10.6111V7.65385C36.3932 7.45777 36.3153 7.26972 36.1766 7.13107C36.038 6.99242 35.8499 6.91453 35.6538 6.91453C35.4578 6.91453 35.2697 6.99242 35.1311 7.13107C34.9924 7.26972 34.9145 7.45777 34.9145 7.65385Z" fill="#98887A" stroke="#98887A" stroke-width="0.3"/>
</svg>
